<svg xmlns="http://www.w3.org/2000/svg" viewBox="0 0 100 100">
  <defs>
    <linearGradient id="cozyBg" x1="0%" y1="0%" x2="0%" y2="100%">
      <stop offset="0%" style="stop-color:#fef3e2;stop-opacity:1" />
      <stop offset="100%" style="stop-color:#fde7d5;stop-opacity:1" />
    </linearGradient>
  </defs>
  
  <!-- Warm background -->
  <rect width="100" height="100" fill="url(#cozyBg)" rx="20"/>
  
  <!-- Cozy window with curtains -->
  <rect x="25" y="15" width="50" height="40" rx="5" fill="#a7d5e8"/>
  
  <!-- Window panes -->
  <line x1="50" y1="15" x2="50" y2="55" stroke="#8b7355" stroke-width="2"/>
  <line x1="25" y1="35" x2="75" y2="35" stroke="#8b7355" stroke-width="2"/>
  
  <!-- Curtains -->
  <path d="M 20 15 Q 22 30 20 45 L 20 60 Q 22 50 25 40 Q 23 25 25 15 Z" fill="#f59e0b" opacity="0.7"/>
  <path d="M 80 15 Q 78 30 80 45 L 80 60 Q 78 50 75 40 Q 77 25 75 15 Z" fill="#f59e0b" opacity="0.7"/>
  
  <!-- Plant in window -->
  <ellipse cx="65" cy="52" rx="8" ry="4" fill="#92400e"/>
  <path d="M 60 48 Q 58 42 60 38" stroke="#10b981" stroke-width="2" fill="none"/>
  <path d="M 65 46 Q 65 40 67 36" stroke="#10b981" stroke-width="2" fill="none"/>
  <path d="M 70 48 Q 72 42 70 38" stroke="#10b981" stroke-width="2" fill="none"/>
  <circle cx="60" cy="38" r="3" fill="#34d399"/>
  <circle cx="67" cy="36" r="3" fill="#34d399"/>
  <circle cx="70" cy="38" r="3" fill="#34d399"/>
  
  <!-- Stack of books -->
  <rect x="30" y="70" width="18" height="4" rx="1" fill="#f59e0b"/>
  <rect x="32" y="66" width="16" height="4" rx="1" fill="#fbbf24"/>
  <rect x="31" y="62" width="17" height="4" rx="1" fill="#fcd34d"/>
  
  <!-- Gaming headset resting on books -->
  <path d="M 38 58 Q 42 54 46 58" stroke="#fbbf24" stroke-width="3" fill="none" stroke-linecap="round"/>
  <rect x="35" y="58" width="4" height="6" rx="2" fill="#fbbf24"/>
  <rect x="45" y="58" width="4" height="6" rx="2" fill="#fbbf24"/>
  
  <!-- Cozy mug with heart -->
  <rect x="55" y="66" width="12" height="12" rx="2" fill="#f87171"/>
  <path d="M 67 71 Q 72 71 72 76 Q 72 81 67 81" stroke="#ef4444" stroke-width="2" fill="none"/>
  <path d="M 59 71 C 59 71 57 69 57 67 C 57 66 58 65 59 65 C 60 65 61 66 61 67 C 61 66 62 65 63 65 C 64 65 65 66 65 67 C 65 69 63 71 63 71 Z" fill="#fef3e2"/>
  
  <!-- Soft fairy lights -->
  <circle cx="20" cy="25" r="2" fill="#fbbf24" opacity="0.8"/>
  <circle cx="28" cy="22" r="2" fill="#fcd34d" opacity="0.8"/>
  <circle cx="36" cy="24" r="2" fill="#fbbf24" opacity="0.8"/>
  <circle cx="80" cy="25" r="2" fill="#fbbf24" opacity="0.8"/>
  <circle cx="72" cy="22" r="2" fill="#fcd34d" opacity="0.8"/>
</svg>
