<svg xmlns="http://www.w3.org/2000/svg" viewBox="0 0 100 100">
  <!-- Background gradient -->
  <defs>
    <linearGradient id="skyGrad" x1="0%" y1="0%" x2="0%" y2="100%">
      <stop offset="0%" style="stop-color:#a78bfa;stop-opacity:1" />
      <stop offset="100%" style="stop-color:#7c3aed;stop-opacity:1" />
    </linearGradient>
  </defs>
  
  <rect width="100" height="100" fill="url(#skyGrad)" rx="20"/>
  
  <!-- Cute cloud -->
  <ellipse cx="40" cy="50" rx="15" ry="12" fill="#ffffff"/>
  <ellipse cx="50" cy="45" rx="18" ry="15" fill="#ffffff"/>
  <ellipse cx="60" cy="50" rx="15" ry="12" fill="#ffffff"/>
  
  <!-- Cloud face -->
  <circle cx="45" cy="48" r="2" fill="#7c3aed"/>
  <circle cx="55" cy="48" r="2" fill="#7c3aed"/>
  <path d="M 47 53 Q 50 56 53 53" stroke="#7c3aed" stroke-width="1.5" fill="none" stroke-linecap="round"/>
  
  <!-- Sparkly stars -->
  <path d="M 25 30 L 26 33 L 29 33 L 27 35 L 28 38 L 25 36 L 22 38 L 23 35 L 21 33 L 24 33 Z" fill="#fff59d"/>
  <path d="M 70 25 L 71 28 L 74 28 L 72 30 L 73 33 L 70 31 L 67 33 L 68 30 L 66 28 L 69 28 Z" fill="#ffffff"/>
  <circle cx="75" cy="65" r="2" fill="#fff59d"/>
  <circle cx="30" cy="70" r="1.5" fill="#ffffff"/>
</svg>
